<?xml version="1.0" standalone="no"?>
<!DOCTYPE svg PUBLIC "-//W3C//DTD SVG 20010904//EN"
 "http://www.w3.org/TR/2001/REC-SVG-20010904/DTD/svg10.dtd">
<svg version="1.0" xmlns="http://www.w3.org/2000/svg"
 width="360.000000pt" height="360.000000pt" viewBox="0 0 360.000000 360.000000"
 preserveAspectRatio="xMidYMid meet">
<metadata>
Created by potrace 1.14, written by Peter Selinger 2001-2017
</metadata>
<g transform="translate(0.000000,360.000000) scale(0.100000,-0.100000)"
fill="#000000" stroke="none">
<path d="M1636 2972 c-16 -8 -46 -15 -67 -16 -22 0 -39 -4 -39 -8 0 -5 -12 -8
-26 -8 -14 0 -35 -5 -47 -12 -12 -7 -30 -13 -39 -15 -17 -3 -28 -11 -91 -65
-18 -15 -35 -28 -39 -28 -5 0 -8 -4 -8 -10 0 -9 -7 -18 -55 -71 -8 -9 -15 -21
-15 -27 0 -7 -4 -12 -10 -12 -5 0 -10 -9 -10 -19 0 -11 -4 -23 -10 -26 -5 -3
-10 -15 -10 -26 0 -10 -5 -19 -11 -19 -5 0 -8 -4 -5 -9 10 -16 -25 -21 -52 -8
-26 13 -60 14 -172 2 -48 -4 -71 -8 -140 -21 -8 -2 -22 -11 -30 -21 -8 -11
-23 -22 -32 -26 -10 -3 -18 -13 -18 -20 0 -8 -9 -22 -20 -32 -16 -15 -18 -21
-7 -33 10 -13 9 -15 -5 -10 -21 9 -31 -17 -13 -32 8 -7 13 -16 10 -20 -4 -6
35 -20 70 -25 6 0 20 -6 32 -13 12 -7 29 -9 39 -5 10 3 15 2 12 -3 -4 -5 13
-9 35 -9 23 1 52 -3 65 -7 15 -5 22 -4 22 5 0 8 3 8 9 -2 5 -7 13 -11 19 -7
16 10 72 14 72 6 0 -12 -26 -30 -33 -23 -4 3 -7 1 -7 -5 0 -14 -56 -72 -63
-65 -3 2 -13 -9 -22 -26 -8 -17 -21 -31 -28 -31 -12 0 -67 -71 -67 -87 0 -5
-9 -19 -20 -31 -12 -12 -18 -22 -15 -22 3 0 -2 -11 -11 -24 -8 -14 -15 -27
-15 -31 1 -3 -6 -19 -14 -35 -9 -17 -13 -30 -9 -30 4 0 0 -8 -7 -17 -8 -10 -9
-14 -2 -10 7 5 6 -4 -4 -23 -17 -36 -42 -135 -50 -200 -2 -25 -10 -70 -17
-100 -13 -54 -14 -206 -2 -285 l6 -40 -64 -30 c-35 -17 -62 -26 -59 -20 2 5
-1 3 -9 -5 -20 -24 -84 -61 -91 -53 -4 3 -7 2 -7 -3 0 -5 -16 -18 -35 -28 -19
-10 -32 -23 -29 -27 3 -5 -3 -12 -13 -16 -21 -8 -28 -15 -64 -63 -15 -19 -36
-45 -48 -57 -12 -12 -21 -26 -21 -30 0 -5 -9 -15 -19 -23 -11 -7 -18 -17 -15
-22 3 -4 1 -8 -5 -8 -5 0 -13 -9 -16 -20 -4 -11 -19 -32 -33 -47 -15 -14 -21
-22 -14 -19 17 10 15 1 -4 -19 -19 -19 -45 -123 -46 -185 -1 -32 4 -50 11 -46
5 4 7 -3 4 -13 -3 -11 4 -28 16 -40 12 -12 19 -21 16 -21 -3 0 13 -17 36 -37
39 -36 42 -36 55 -18 8 10 14 14 14 9 0 -10 38 -10 145 -1 l31 3 -1 -166 c-1
-91 3 -180 7 -197 l9 -33 1069 0 c1009 0 1069 1 1074 18 5 15 3 53 -4 87 -1 6
-1 12 0 15 8 20 4 278 -4 289 -9 12 -8 13 2 7 11 -7 12 -4 3 11 -6 11 -7 23
-4 27 4 3 -2 13 -13 22 -10 8 -13 12 -6 9 8 -4 19 1 27 11 12 16 17 17 34 6
13 -7 21 -8 21 -2 0 7 7 7 21 0 11 -6 28 -13 37 -15 68 -16 108 -30 114 -38 9
-14 109 -16 133 -3 11 6 30 21 42 34 12 12 25 22 28 22 20 -1 23 2 18 20 -4
16 -2 19 11 14 12 -5 15 -2 10 10 -3 9 -1 16 5 16 15 0 14 27 -3 42 -11 11
-11 15 3 26 9 7 10 10 2 6 -11 -5 -12 -1 -7 20 4 18 3 25 -3 21 -6 -3 -8 0 -5
8 3 8 1 18 -5 22 -6 3 -11 15 -11 26 0 10 -4 19 -9 19 -5 0 -11 10 -15 23 -3
13 -14 34 -26 46 -11 13 -17 27 -15 32 3 4 -3 14 -13 21 -9 7 -17 20 -17 28 1
8 -11 27 -25 41 -14 14 -42 44 -62 67 -20 23 -41 42 -47 42 -6 0 -11 5 -11 10
0 6 -4 10 -10 10 -5 0 -26 11 -46 25 -20 14 -39 23 -42 20 -3 -2 -10 2 -16 9
-6 8 -54 36 -106 62 -52 27 -96 52 -98 56 -2 4 -10 4 -18 1 -19 -7 -18 16 3
57 30 61 42 70 72 54 14 -8 31 -14 37 -14 6 0 17 -6 23 -14 18 -22 273 -39
356 -25 33 6 75 29 75 41 0 5 7 8 15 8 8 0 15 4 15 9 0 5 9 13 20 16 11 3 20
13 20 21 0 8 4 13 9 10 5 -3 11 1 15 9 3 8 12 15 21 15 8 0 15 6 15 13 0 8 11
24 25 37 13 12 24 25 23 29 -2 19 4 24 12 11 8 -12 10 -13 10 -1 0 8 8 23 18
34 9 11 11 17 5 13 -7 -4 -13 -2 -13 4 0 6 -4 8 -10 5 -6 -4 -7 1 -3 11 4 11
8 13 11 6 6 -19 19 -14 27 11 11 34 11 51 0 66 -7 11 -7 13 2 8 18 -11 22 16
4 37 -15 18 -15 19 2 13 15 -6 16 -4 6 14 -8 15 -8 19 0 15 6 -4 11 -2 11 3 0
6 -4 11 -9 11 -5 0 -12 7 -15 16 -3 9 -2 12 5 9 6 -4 7 3 3 22 -4 15 -3 25 1
20 5 -4 17 1 28 10 20 19 87 25 98 9 10 -13 28 2 42 37 12 30 6 78 -13 97 -9
9 -8 80 1 80 5 0 4 12 -1 26 -7 16 -7 23 0 19 6 -3 10 -1 10 4 0 6 -5 11 -11
11 -5 0 -7 5 -4 10 3 6 1 10 -5 10 -7 0 -10 6 -7 14 3 8 -1 20 -8 26 -8 7 -12
17 -8 23 4 6 0 8 -10 4 -11 -4 -15 -1 -12 14 2 10 0 19 -5 19 -5 0 -21 13 -37
29 -16 15 -43 36 -61 45 -18 9 -32 22 -32 29 0 8 -4 7 -10 -3 -8 -13 -10 -12
-10 3 0 9 -7 18 -15 18 -17 2 -34 5 -37 9 -7 5 -107 20 -172 25 -24 2 -55 -5
-85 -19 -56 -26 -93 -51 -86 -58 3 -3 -11 -13 -32 -23 -21 -10 -41 -23 -45
-29 -4 -7 -13 -4 -26 7 -10 9 -22 14 -25 11 -4 -4 -13 -1 -21 5 -18 15 -47 20
-143 26 -40 2 -73 1 -73 -4 0 -4 -15 -7 -32 -6 -18 1 -42 -4 -53 -11 -11 -8
-16 -14 -13 -14 4 0 -3 -11 -16 -25 -13 -14 -31 -25 -40 -25 -9 0 -16 -8 -16
-17 -1 -22 -25 -55 -33 -46 -9 8 -46 -38 -47 -58 0 -9 -7 -22 -16 -30 -8 -7
-13 -21 -10 -31 4 -16 2 -17 -11 -6 -14 11 -15 11 -11 -2 3 -8 1 -23 -4 -32
-6 -13 -5 -18 4 -18 8 0 6 -5 -5 -11 -14 -8 -15 -14 -6 -30 10 -19 9 -20 -12
-9 -12 7 -41 32 -63 55 -23 23 -53 50 -68 60 -16 9 -28 24 -28 31 0 8 -5 14
-10 14 -6 0 -26 16 -44 35 -19 19 -42 35 -51 35 -9 0 -14 4 -11 8 6 10 -47 62
-63 62 -6 0 -11 4 -11 9 0 5 -8 11 -17 15 -10 3 -34 15 -53 26 -49 30 -89 50
-95 50 -3 0 -22 9 -42 20 -22 11 -39 16 -41 10 -2 -5 -11 -3 -19 6 -9 8 -22
13 -30 10 -10 -4 -9 1 4 18 10 14 26 27 37 30 11 3 15 9 10 17 -4 8 -3 10 4 5
7 -4 12 -2 12 4 0 6 4 9 9 6 12 -8 34 21 26 34 -3 5 1 10 9 10 9 0 16 6 16 14
0 8 7 17 16 20 8 3 12 10 9 16 -3 5 -2 10 4 10 6 0 8 7 5 15 -4 10 3 18 20 25
14 5 26 15 26 22 0 9 -3 8 -10 -2 -6 -9 -10 -10 -10 -3 0 6 5 15 11 19 8 4 7
9 -2 15 -11 7 -9 9 6 9 17 0 17 2 5 10 -9 6 -11 10 -3 10 7 0 10 6 7 14 -3 8
-1 17 5 21 6 3 11 11 11 16 0 6 -6 7 -12 3 -9 -5 -9 -2 1 9 14 18 24 147 11
147 -5 0 -6 9 -3 20 3 11 1 20 -5 20 -6 0 -12 8 -14 18 -3 16 -6 16 -32 4z
m1598 -1338 c3 -8 2 -12 -4 -9 -6 3 -10 10 -10 16 0 14 7 11 14 -7z m-923
-163 c18 -17 19 -22 7 -42 -7 -13 -23 -34 -35 -48 l-23 -26 9 32 c5 18 7 41 4
53 -3 11 0 20 6 20 5 0 8 7 5 15 -8 20 3 19 27 -4z m-2193 -1006 c-3 -3 -9 2
-12 12 -6 14 -5 15 5 6 7 -7 10 -15 7 -18z"/>
</g>
</svg>
